<?xml version="1.0" encoding="UTF-8" standalone="no"?>
<!-- Created with Inkscape (http://www.inkscape.org/) -->

<svg
   xmlns:dc="http://purl.org/dc/elements/1.1/"
   xmlns:cc="http://creativecommons.org/ns#"
   xmlns:rdf="http://www.w3.org/1999/02/22-rdf-syntax-ns#"
   xmlns:svg="http://www.w3.org/2000/svg"
   xmlns="http://www.w3.org/2000/svg"
   xmlns:sodipodi="http://sodipodi.sourceforge.net/DTD/sodipodi-0.dtd"
   xmlns:inkscape="http://www.inkscape.org/namespaces/inkscape"
   id="svg2"
   version="1.1"
   inkscape:version="0.91 r13725"
   xml:space="preserve"
   width="683.46124"
   height="746.31445"
   viewBox="0 0 683.46124 746.31445"
   sodipodi:docname="publicdomainq-strong_arm.svg"
   inkscape:export-filename="F:\_GRAFIKA\Publicdomainq\publicdomainq-strong_arm.png"
   inkscape:export-xdpi="80.183136"
   inkscape:export-ydpi="80.183136"><title
     id="title4145">Strong arm</title><metadata
     id="metadata8"><rdf:RDF><cc:Work
         rdf:about=""><dc:format>image/svg+xml</dc:format><dc:type
           rdf:resource="http://purl.org/dc/dcmitype/StillImage" /><dc:title>Strong arm</dc:title><cc:license
           rdf:resource="http://creativecommons.org/publicdomain/zero/1.0/" /><dc:subject><rdf:Bag><rdf:li>arm</rdf:li><rdf:li>muscle</rdf:li><rdf:li>biceps</rdf:li><rdf:li>body</rdf:li><rdf:li>hand</rdf:li></rdf:Bag></dc:subject><dc:description>This image was adapted from a picture posted to publicdomainq.net. All of the images on these sites are in the public domain i.e. CC0. This site is only in Japanese but can be easily navigated with Google Translate.</dc:description></cc:Work><cc:License
         rdf:about="http://creativecommons.org/publicdomain/zero/1.0/"><cc:permits
           rdf:resource="http://creativecommons.org/ns#Reproduction" /><cc:permits
           rdf:resource="http://creativecommons.org/ns#Distribution" /><cc:permits
           rdf:resource="http://creativecommons.org/ns#DerivativeWorks" /></cc:License></rdf:RDF></metadata><defs
     id="defs6" /><sodipodi:namedview
     pagecolor="#ffffff"
     bordercolor="#666666"
     borderopacity="1"
     objecttolerance="10"
     gridtolerance="10"
     guidetolerance="10"
     inkscape:pageopacity="0"
     inkscape:pageshadow="2"
     inkscape:window-width="2560"
     inkscape:window-height="1369"
     id="namedview4"
     showgrid="false"
     inkscape:zoom="0.90655639"
     inkscape:cx="59.032233"
     inkscape:cy="368.18636"
     inkscape:window-x="-9"
     inkscape:window-y="-9"
     inkscape:window-maximized="1"
     inkscape:current-layer="g10"
     fit-margin-top="5"
     fit-margin-left="5"
     fit-margin-bottom="5"
     fit-margin-right="5" /><g
     id="g10"
     inkscape:groupmode="layer"
     inkscape:label="ink_ext_XXXXXX"
     transform="matrix(1.25,0,0,-1.25,5,741.31444)"><g
       id="g12"
       transform="scale(0.1,0.1)"><path
         d="M 2693.84,4057.56 3120.51,5387.69 3115.26,3990.81 3932.08,5124 3495.42,3797.13 4622.44,4622.44 3797.12,3495.43 5124,3932.08 3990.82,3115.27 5387.69,3120.52 4057.55,2693.85 5387.69,2267.19 3990.82,2272.43 5124,1455.6 3797.12,1892.26 4622.44,765.25 3495.42,1590.56 3932.08,263.691 3115.26,1396.88 3120.51,0 2693.84,1330.13 2267.17,0 2272.43,1396.88 1455.6,263.691 1892.26,1590.56 765.25,765.25 1590.56,1892.26 263.688,1455.6 1396.87,2272.43 0,2267.19 1330.13,2693.85 0,3120.52 1396.87,3115.27 263.688,3932.08 1590.56,3495.43 765.25,4622.44 1892.26,3797.13 1455.6,5124 l 816.83,-1133.19 -5.26,1396.88 426.67,-1330.13"
         style="fill:#fbc707;fill-opacity:1;fill-rule:nonzero;stroke:none"
         id="path14"
         inkscape:connector-curvature="0" /><path
         d="m 4594.88,2714.83 c -232.65,545.79 -824.51,992.19 -1697.31,779.55 -215.05,-52.4 -361.05,-187.3 -541.17,-263.65 -32.8,-30.58 -65.6,-61.16 -98.39,-91.74 -258.1,387.57 -699.12,526.73 -688.76,1134.95 282.86,231.17 910.33,800.79 368.98,1157.85 46.53,14.17 -61.18,190.37 -73.8,206.36 -108.97,138.04 -306.19,257.58 -565.77,252.19 -90.18,-30.56 -180.4,-61.13 -270.58,-91.7 -41.006,-68.78 -82.006,-137.58 -123.002,-206.35 -106,-193.52 -245.258,-490.11 -233.672,-779.55 9.965,-249.34 31.574,-506.57 -12.304,-756.62 -158.481,-902.95 30.918,-2116.3 590.368,-2636.73 119.76,-111.38 326.23,-69.69 491.96,-114.63 127.08,-64.96 254.2,-129.93 381.28,-194.89 195.3,-78.62 454.04,-112.319 688.76,-148.999 436.37,-68.242 1402.84,91.339 1598.92,252.179 227.95,186.99 311.28,1204.31 184.49,1501.78"
         style="fill:#f9b289;fill-opacity:1;fill-rule:nonzero;stroke:none"
         id="path16"
         inkscape:connector-curvature="0" /><path
         d="m 668.844,3568.85 c 175,-1437.5 899.996,-1937.5 1124.996,-1900 250,-262.5 2175,-562.5 2625,-200 -62.5,-275 -387.5,-462.5 -1237.5,-499.998 -637.5,12.5 -1100,112.498 -1300,362.498 l -212.5,12.5 -212.5,0 -112.5,50 -112.5,87.5 -100,250 -187.496,287.5 c 0,0 -375,625 -275,1550"
         style="fill:#ce9370;fill-opacity:1;fill-rule:nonzero;stroke:none"
         id="path18"
         inkscape:connector-curvature="0" /><path
         d="m 1781.34,5681.34 -125,-150 25,-137.5 -100,-175 12.5,-200 -100,-162.49 -25,-212.5 -225,-25 12.5,-212.5 -87.5,-100 37.5,-100 150,12.5 300,212.5 250,262.5 125,199.99 50,175 -12.5,175 -137.5,162.5 -25,112.5 -125,162.5"
         style="fill:#ce9370;fill-opacity:1;fill-rule:nonzero;stroke:none"
         id="path20"
         inkscape:connector-curvature="0" /><path
         d="m 1081.34,3643.85 c -124.996,-262.5 -137.496,-1037.5 437.5,-1125 -175,237.5 -437.5,712.5 -437.5,1125"
         style="fill:#ce9370;fill-opacity:1;fill-rule:nonzero;stroke:none"
         id="path22"
         inkscape:connector-curvature="0" /><path
         d="m 2693.84,2006.35 c 350,-350 787.5,-475 1500,-162.5 -375,-375 -1350,-550 -1500,162.5"
         style="fill:#ce9370;fill-opacity:1;fill-rule:nonzero;stroke:none"
         id="path24"
         inkscape:connector-curvature="0" /><path
         d="m 1193.84,5556.34 c 237.5,12.5 625,75 725,25 -325,187.5 -575,125 -725,-25"
         style="fill:#fde4c4;fill-opacity:1;fill-rule:nonzero;stroke:none"
         id="path26"
         inkscape:connector-curvature="0" /><path
         d="m 1106.34,5481.34 250,25 162.5,-50 -412.5,25"
         style="fill:#fde4c4;fill-opacity:1;fill-rule:nonzero;stroke:none"
         id="path28"
         inkscape:connector-curvature="0" /><path
         d="m 1493.84,3793.85 c 187.5,-250 800,-762.5 700,-1125 -162.5,250 -487.5,825 -700,1125"
         style="fill:#fde4c4;fill-opacity:1;fill-rule:nonzero;stroke:none"
         id="path30"
         inkscape:connector-curvature="0" /><path
         d="m 2493.84,2468.85 c 62.5,250 0,762.5 537.5,875 475,-12.5 962.5,0 1262.5,-475 -575,150 -1300,337.5 -1800,-400"
         style="fill:#fde4c4;fill-opacity:1;fill-rule:nonzero;stroke:none"
         id="path32"
         inkscape:connector-curvature="0" /><path
         d="m 3401.83,1683.07 c -198.28,33.77 -436.6,79.13 -565.77,183.44 -55.83,45.09 -65.56,113.7 -135.27,149.01 -8.21,-7.62 -16.41,-15.28 -24.59,-22.92 247.29,-440.59 1054.99,-404.41 1512.81,-183.42 l 0,34.41 c -151.97,26.25 -493.88,-210.46 -787.18,-160.52 z M 1126.47,3631.96 c -20.5,3.81 -41,7.63 -61.49,11.47 -50.55,-316.1 252.16,-938.3 405.87,-1134.95 12.3,-3.81 24.59,-7.64 36.89,-11.47 12.3,3.83 24.6,7.66 36.91,11.47 -49.2,68.79 -98.4,137.57 -147.6,206.35 -130.29,239.42 -264.29,592.49 -270.58,917.13 z M 831.289,4686.63 c 20.488,-7.64 40.996,-15.28 61.488,-22.92 25.231,152.91 114.983,165.11 159.893,275.13 -12.29,3.82 -24.59,7.64 -36.89,11.46 -85.405,-69.95 -180.643,-115.83 -184.491,-263.67 z M 4238.2,1224.53 C 3882.8,996.539 2959.25,948.922 2442.49,1075.5 c -256.87,62.9 -438.48,237.24 -664.16,298.05 -185.38,49.95 -331.22,-23.71 -467.36,80.26 -84.52,64.5 -92.58,272.62 -159.9,366.84 -512.285,716.96 -505.074,1398.45 -381.281,2373.03 43.488,18.45 131.75,-19.22 184.492,-34.39 12.305,3.82 24.602,7.65 36.907,11.46 l 0,11.47 c -45.102,15.28 -90.211,30.57 -135.305,45.86 -168.078,91.57 -115.32,427.04 -110.688,664.9 20.489,-7.63 40.996,-15.28 61.489,-22.92 60.914,130.07 42.117,252.57 209.096,286.6 -20.042,50.54 -6.75,39.99 -73.8,45.85 -70.75,-58.28 -139.175,-99.76 -159.89,-206.35 l -12.301,0 c 16.219,273.81 95.488,388.38 270.591,527.34 -26.74,19.92 -33.06,20.55 -86.099,22.93 43.157,220.09 180.949,221.76 381.279,298.06 243.65,-16.04 524.95,-164.54 504.26,-389.77 -229.22,106.26 -412.01,139.93 -737.95,126.1 -8.19,-11.47 -16.4,-22.93 -24.6,-34.39 90.4,-31.01 225.26,15.93 381.28,-11.46 143.96,-25.27 269.4,-92.62 381.27,-149.03 24.2,-71.65 39.97,-143.59 36.91,-252.21 -40.22,-40.58 -55.74,-73.41 -123,-91.72 -103.2,198.42 -422.43,249.67 -688.75,171.97 -4.11,-7.64 -8.2,-15.29 -12.31,-22.93 193.12,-104.58 469.35,136.32 614.97,-183.43 25.08,-55.08 32.65,-129.7 0,-183.41 l 0,-22.93 c -151.47,26.72 -352.68,290.98 -578.07,114.64 l 0,-11.47 c 86.09,3.82 172.19,7.64 258.29,11.47 69.69,-38.21 139.4,-76.44 209.09,-114.64 36.05,-54.58 52.67,-95.7 49.2,-194.89 -66.03,-66.49 -113.77,-106.01 -258.29,-103.17 -12.3,15.27 -24.6,30.56 -36.89,45.85 32.79,30.57 65.59,61.14 98.39,91.71 -37.12,27.14 -112.95,26.5 -184.5,22.93 -4.09,-3.83 -8.19,-7.64 -12.3,-11.47 22.61,-92.83 58.4,-239.87 -36.9,-286.59 l 0,-45.86 c 12.3,-3.83 24.6,-7.64 36.9,-11.46 47.45,43.23 82.67,73.91 98.41,149.02 253.38,-113.06 380.13,188.95 479.66,355.39 14.66,24.51 8.23,121.54 12.3,126.1 93.13,104.16 230.36,193.88 147.6,401.23 l 0,11.48 c 171.13,-51.44 90.47,-375.21 36.89,-492.95 -92.8,-203.95 -549.22,-637.31 -787.16,-676.38 l 0,-11.47 c 62.14,-46.26 143.84,-5.51 196.79,22.93 141.07,-631.32 1357.42,-1170.24 737.95,-1994.72 269.16,-145.86 226.95,808.16 332.1,962.96 340.21,500.94 1541.57,328.86 1844.89,-68.78 99.95,-131.04 209.39,-330.71 245.98,-504.41 76.58,-363.63 -100.89,-1223.79 -319.77,-1364.2 z m 356.68,1490.3 c -232.65,545.79 -824.51,992.19 -1697.31,779.55 -215.05,-52.4 -361.05,-187.3 -541.17,-263.65 -32.8,-30.58 -65.6,-61.16 -98.39,-91.74 -258.1,387.57 -699.12,526.73 -688.76,1134.95 282.86,231.17 910.33,800.79 368.98,1157.85 46.53,14.17 -61.18,190.37 -73.8,206.36 -108.97,138.04 -306.19,257.58 -565.77,252.19 -90.18,-30.56 -180.4,-61.13 -270.58,-91.7 -41.006,-68.78 -82.006,-137.58 -123.002,-206.35 -106,-193.52 -245.258,-490.11 -233.672,-779.55 9.965,-249.34 31.574,-506.57 -12.304,-756.62 -158.481,-902.95 30.918,-2116.3 590.368,-2636.73 119.76,-111.38 326.23,-69.69 491.96,-114.63 127.08,-64.96 254.2,-129.93 381.28,-194.89 195.3,-78.62 454.04,-112.319 688.76,-148.999 436.37,-68.242 1402.84,91.339 1598.92,252.179 227.95,186.99 311.28,1204.31 184.49,1501.78"
         style="fill:#231f20;fill-opacity:1;fill-rule:nonzero;stroke:none"
         id="path34"
         inkscape:connector-curvature="0" /></g></g></svg>