<svg width="193" height="193" viewBox="0 0 193 193" fill="none" xmlns="http://www.w3.org/2000/svg">
<path d="M112.02 97.0322C112.02 88.231 104.926 81.0739 96.201 81.0739C87.4765 81.0739 80.3818 88.231 80.3818 97.0322C80.3818 105.834 87.4765 112.991 96.201 112.991C104.926 112.991 112.02 105.834 112.02 97.0322ZM96.201 104.383C92.1743 104.383 88.9146 101.094 88.9146 97.0322C88.9146 92.9701 92.1743 89.6817 96.201 89.6817C100.228 89.6817 103.488 92.9701 103.488 97.0322C103.488 101.094 100.228 104.383 96.201 104.383ZM74.3417 47.2227C74.3417 50.1243 72.0407 52.4455 69.1644 52.4455H59.577L81.9157 74.9807C83.9291 77.0117 83.9291 80.3001 81.9157 82.3312C79.9024 84.3623 76.6427 84.3623 74.6293 82.3312L52.4823 59.8927V69.2743C52.4823 72.1759 50.1813 74.4971 47.3051 74.4971C44.4288 74.4971 42.1278 72.1759 42.1278 69.2743V48.2866C41.7443 46.6424 42.2237 44.8048 43.566 43.5475C44.4288 42.5803 45.5793 42.0967 46.7298 42C46.9216 42 47.1133 42 47.3051 42H69.1644C72.0407 42 74.3417 44.3212 74.3417 47.2227ZM47.3051 119.277C50.1813 119.277 52.4823 121.598 52.4823 124.5V134.172L74.821 111.637C76.8344 109.606 80.0941 109.606 82.1075 111.637C84.1209 113.668 84.1209 116.956 82.1075 118.987L59.8646 141.426H69.1644C72.0407 141.426 74.3417 143.747 74.3417 146.648C74.3417 149.55 72.0407 151.871 69.1644 151.871H48.3597C46.7298 152.258 44.9082 151.774 43.6618 150.42C42.799 149.55 42.2237 148.389 42.1278 147.132C42.1278 146.938 42.1278 146.745 42.1278 146.552V124.5C42.2237 121.598 44.5247 119.277 47.3051 119.277ZM118.444 146.068C118.444 143.166 120.745 140.845 123.621 140.845H133.209L110.774 118.31C108.761 116.279 108.761 112.991 110.774 110.96C112.787 108.928 116.047 108.928 118.06 110.96L140.303 133.398V124.016C140.303 121.115 142.604 118.794 145.481 118.794C148.357 118.794 150.658 121.115 150.658 124.016V145.004C151.041 146.648 150.562 148.486 149.22 149.743C148.357 150.614 147.206 151.194 145.96 151.291C145.768 151.291 145.576 151.291 145.385 151.291H123.525C120.745 151.194 118.444 148.873 118.444 146.068ZM146.823 75.4642C143.947 75.4642 141.646 73.143 141.646 70.2415V60.5698L119.403 83.1049C117.389 85.136 114.13 85.136 112.116 83.1049C110.103 81.0739 110.103 77.7855 112.116 75.7544L134.359 53.3159H125.059C122.183 53.3159 119.882 50.9947 119.882 48.0932C119.882 45.1917 122.087 42.9672 124.963 42.9672H145.768C147.398 42.5803 149.22 43.0639 150.466 44.4179C151.329 45.2884 151.904 46.449 152 47.7063C152 47.8998 152 48.0932 152 48.2866V70.3382C152 73.143 149.699 75.4642 146.823 75.4642ZM72.9035 63.3746C79.5189 58.7321 87.5723 55.9273 96.201 55.9273C105.405 55.9273 113.938 59.0223 120.841 64.245L116.047 69.0809C110.486 65.0188 103.679 62.6975 96.201 62.6975C89.394 62.6975 83.0662 64.7286 77.6973 68.2104L72.9035 63.3746ZM63.0285 120.825C58.3306 114.151 55.5503 105.93 55.5503 97.0322C55.5503 88.1342 58.3306 79.9132 63.1243 73.2397L67.9181 78.0756C64.3707 83.4918 62.2615 89.9719 62.2615 97.0322C62.2615 103.996 64.3707 110.476 67.9181 115.892L63.0285 120.825ZM130.236 97.0322C130.236 90.6489 128.511 84.6524 125.443 79.5264L130.332 74.5938C134.551 81.0739 136.948 88.7145 136.948 97.0322C136.948 105.64 134.359 113.571 129.853 120.148L124.963 115.215C128.319 109.992 130.236 103.802 130.236 97.0322ZM120.17 130.206C113.458 135.139 105.213 138.04 96.201 138.04C87.4765 138.04 79.423 135.332 72.9035 130.593L77.6973 125.757C83.0662 129.239 89.394 131.27 96.201 131.27C103.296 131.27 109.911 129.046 115.28 125.37L120.17 130.206Z" fill="#333333"/>
</svg>
