<svg width="193" height="193" viewBox="0 0 193 193" fill="none" xmlns="http://www.w3.org/2000/svg">
<path d="M120.729 124.642H112.844C111.957 124.642 111.168 123.853 111.168 122.966C111.168 122.079 111.957 121.29 112.844 121.29H120.729C121.616 121.29 122.405 122.079 122.405 122.966C122.405 123.952 121.715 124.642 120.729 124.642ZM122.405 127.894C122.405 127.007 121.616 126.219 120.729 126.219H112.844C111.957 126.219 111.168 127.007 111.168 127.894C111.168 128.781 111.957 129.57 112.844 129.57H120.729C121.715 129.57 122.405 128.88 122.405 127.894ZM163.211 71.2186C159.86 76.2455 154.735 79.991 148.919 81.5681C145.864 82.3566 142.808 82.5538 139.753 82.2581C140.048 83.2437 140.147 84.2294 140.147 85.3136V101.478C140.147 105.224 138.373 108.575 135.613 110.645C138.373 112.715 140.147 116.066 140.147 119.812V135.977C140.147 142.285 135.022 147.509 128.615 147.509H65.5323C59.224 147.509 54 142.384 54 135.977V119.812C54 116.066 55.7742 112.715 58.5341 110.645C55.7742 108.575 54 105.224 54 101.478V85.3136C54 79.0054 59.1255 73.7814 65.5323 73.7814H127.826C126.545 69.2473 126.446 64.4176 127.728 59.8835C129.403 54.0681 133.149 49.0412 138.274 45.7885C139.457 45 140.837 44.8029 142.217 45.1971C143.597 45.5914 144.681 46.4785 145.272 47.7599C147.342 52.0968 148.131 56.9265 147.539 61.6577C152.271 61.1649 157.002 62.052 161.24 64.1219C162.521 64.7133 163.409 65.8961 163.803 67.1774C164.197 68.6559 164 70.0358 163.211 71.2186ZM134.036 74.2742C137.683 71.7115 140.245 68.0645 141.527 63.8262C142.71 59.5878 142.414 55.0538 140.738 51.0125C137.091 53.5753 134.529 57.2222 133.247 61.4606C132.065 65.6989 132.262 70.233 134.036 74.2742ZM131.177 119.812C131.177 118.432 129.995 117.249 128.615 117.249H65.5323C64.1523 117.249 62.9696 118.432 62.9696 119.812V135.977C62.9696 137.357 64.1523 138.539 65.5323 138.539H128.615C129.995 138.539 131.177 137.357 131.177 135.977V119.812ZM131.177 85.3136C131.177 83.9337 129.995 82.7509 128.615 82.7509H65.5323C64.1523 82.7509 62.9696 83.9337 62.9696 85.3136V101.478C62.9696 102.858 64.1523 104.041 65.5323 104.041H128.615C129.995 104.041 131.177 102.858 131.177 101.478V85.3136ZM157.987 68.853C154.242 67.1774 150.102 66.7832 146.061 67.6702C144.681 71.1201 142.611 74.1756 139.95 76.6398C142.414 76.9355 144.977 76.7383 147.342 76.147C151.679 74.9642 155.425 72.4014 157.987 68.853ZM122.405 88.4677C122.405 87.5806 121.616 86.7921 120.729 86.7921H112.844C111.957 86.7921 111.168 87.5806 111.168 88.4677C111.168 89.3548 111.957 90.1434 112.844 90.1434H120.729C121.715 90.1434 122.405 89.3548 122.405 88.4677ZM122.405 93.3961C122.405 92.509 121.616 91.7204 120.729 91.7204H112.844C111.957 91.7204 111.168 92.509 111.168 93.3961C111.168 94.2832 111.957 95.0717 112.844 95.0717H120.729C121.715 95.0717 122.405 94.3817 122.405 93.3961Z" fill="#333333"/>
</svg>
