<svg width="193" height="193" viewBox="0 0 193 193" fill="none" xmlns="http://www.w3.org/2000/svg">
<path d="M138.3 63.35L105.3 44.25C100.1 41.25 93.7 41.25 88.5 44.25L55.4 63.35C50.2 66.35 47 71.95 47 77.85V116.05C47 122.05 50.2 127.55 55.4 130.55L88.5 149.65C91 151.15 93.9 151.85 96.9 151.85C99.8 151.85 102.7 151.05 105.3 149.65L138.4 130.55C143.6 127.55 146.8 121.95 146.8 116.05V77.85C146.7 71.95 143.5 66.35 138.3 63.35ZM58.1 116.15V81.95L91.4 100.95V138.65L61 121.05C59.2 120.05 58.1 118.15 58.1 116.15ZM99.7 53.85L131 71.85L96.9 91.25L62.8 71.85L94.1 53.85C95.7 52.85 98 52.85 99.7 53.85ZM135.7 81.95V116.15C135.7 118.15 134.6 120.05 132.8 121.15L102.4 138.75V100.95L135.7 81.95Z" fill="#333333"/>
</svg>
